<?xml version="1.0" encoding="utf-8"?>
<!-- Generator: Adobe Illustrator 26.2.1, SVG Export Plug-In . SVG Version: 6.00 Build 0)  -->
<svg version="1.1" xmlns="http://www.w3.org/2000/svg" xmlns:xlink="http://www.w3.org/1999/xlink" x="0px" y="0px"
	 viewBox="0 0 100 100" style="enable-background:new 0 0 100 100;" xml:space="preserve">
<style type="text/css">
	.st0{display:none;}
	.st1{display:inline;fill:#FFFFFF;}
	.st2{fill:none;}
	.st3{fill:#F6931D;}
	.st4{display:inline;}
	.st5{fill:#333333;}
	.st6{fill:#FFFFFF;}
</style>
<g id="Layer_3" class="st0">
	<rect x="-910" y="-490" class="st1" width="1920" height="1080"/>
</g>
<g id="Layer_1">
	<g>
		<rect x="1.2" y="55.4" class="st2" width="103.5" height="36.1"/>
		<path class="st3" d="M18.5,57.9v8.5c0,4.8-3.9,8.7-8.7,8.7c-4.4,0-8-3.3-8.6-7.5h2.4c0.5,2.9,3.1,5.2,6.2,5.2
			c3.5,0,6.3-2.9,6.3-6.3v-6.1H8.9C7.5,63,4.6,65,1.2,65v-2.4c2.9,0,5.4-2,6.1-4.8H18.5z"/>
		<path class="st3" d="M20.1,55.4h2.3v7.4h14.9v2.3H22.5v1.2c0,3.5,2.8,6.3,6.3,6.3c3.1,0,5.6-2.2,6.2-5.2h2.4
			c-0.6,4.2-4.2,7.5-8.6,7.5c-4.8,0-8.7-3.9-8.7-8.7V55.4z"/>
		<path class="st3" d="M39.1,57.9h2.3v8.5c0,3.5,2.8,6.3,6.3,6.3c3.5,0,6.3-2.9,6.3-6.3v-8.5h2.3v8.5c0,4.8-3.9,8.6-8.7,8.6
			c-4.8,0-8.7-3.9-8.7-8.7V57.9z"/>
		<path class="st3" d="M75.3,55.4v11c0,4.8-3.9,8.7-8.7,8.7c-4.8,0-8.7-3.9-8.7-8.7c0-4.8,3.9-8.7,8.7-8.7c2.5,0,4.7,1,6.3,2.7v-5
			H75.3z M66.7,60.1c-3.5,0-6.3,2.8-6.3,6.3s2.9,6.3,6.3,6.3s6.3-2.9,6.3-6.3S70.2,60.1,66.7,60.1z"/>
		<path class="st3" d="M78.1,58.4c-0.9,0-1.6-0.7-1.6-1.6c0-0.9,0.7-1.6,1.6-1.6c0.9,0,1.6,0.7,1.6,1.6C79.7,57.7,79,58.4,78.1,58.4
			z M79.3,60.3v14.6H77V60.3H79.3z"/>
		<path class="st3" d="M98.3,66.4c0,4.8-3.9,8.7-8.7,8.7c-4.8,0-8.7-3.9-8.7-8.7c0-4.8,3.9-8.7,8.7-8.7
			C94.4,57.7,98.3,61.6,98.3,66.4z M95.9,66.4c0-3.5-2.8-6.3-6.3-6.3s-6.3,2.8-6.3,6.3s2.9,6.3,6.3,6.3S95.9,69.9,95.9,66.4z"/>
	</g>
</g>
<g id="Layer_1_copy" class="st0">
	<g class="st4">
		<rect x="1.2" y="19.7" class="st2" width="103.5" height="36.1"/>
		<path class="st5" d="M1.2,55.8V37.7c0-7.8,6.3-14.2,14.2-14.2c7.9,0,14.2,6.3,14.2,14.2c0,7.8-6.3,14.2-14.2,14.2
			c-4.1,0-7.7-1.7-10.3-4.5v8.4H1.2z M15.4,48.1c5.8,0,10.4-4.7,10.4-10.4c0-5.7-4.6-10.3-10.4-10.3C9.7,27.4,5.1,32,5.1,37.7
			C5.1,43.4,9.7,48.1,15.4,48.1z"/>
		<path class="st5" d="M34.3,24.6c-1.5,0-2.6-1.1-2.6-2.6c0-1.4,1.1-2.6,2.6-2.6s2.6,1.2,2.6,2.6C36.9,23.5,35.7,24.6,34.3,24.6z
			 M36.2,27.8v23.9h-3.8V27.8H36.2z"/>
		<path class="st5" d="M67.3,51.7h-3.9v-4.4c0-5.7-4.6-10.3-10.3-10.3c-5.7,0-10.3,4.6-10.3,10.3v4.4h-3.9v-4.4
			c0-5.2,2.9-9.8,7.1-12.3c-3.9-2.3-6.7-6.4-7.1-11.1h3.9C43.4,29,47.8,33,53.1,33c5.4,0,9.7-4.1,10.3-9.2h3.8
			c-0.4,4.7-3.1,8.8-7,11.1c4.3,2.5,7,7.1,7.1,12.3L67.3,51.7z"/>
		<path class="st5" d="M98.4,51.7h-3.9v-4.4c0-5.7-4.6-10.3-10.3-10.3c-5.7,0-10.3,4.6-10.3,10.3v4.4H70v-4.4
			c0-5.2,2.9-9.8,7.1-12.3c-3.9-2.3-6.7-6.4-7.1-11.1h3.9C74.5,29,78.8,33,84.1,33c5.4,0,9.7-4.1,10.3-9.2h3.8
			c-0.4,4.7-3.1,8.8-7,11.1c4.3,2.5,7,7.1,7.1,12.3L98.4,51.7z"/>
	</g>
</g>
<g id="Layer_4">
	<g>
		<rect x="1.2" y="19.7" class="st2" width="103.5" height="36.1"/>
		<path class="st6" d="M1.2,55.8V37.7c0-7.8,6.3-14.2,14.2-14.2c7.9,0,14.2,6.3,14.2,14.2c0,7.8-6.3,14.2-14.2,14.2
			c-4.1,0-7.7-1.7-10.3-4.5v8.4H1.2z M15.4,48.1c5.8,0,10.4-4.7,10.4-10.4c0-5.7-4.6-10.3-10.4-10.3C9.7,27.4,5.1,32,5.1,37.7
			C5.1,43.4,9.7,48.1,15.4,48.1z"/>
		<path class="st6" d="M34.3,24.6c-1.5,0-2.6-1.1-2.6-2.6c0-1.4,1.1-2.6,2.6-2.6s2.6,1.2,2.6,2.6C36.9,23.5,35.7,24.6,34.3,24.6z
			 M36.2,27.8v23.9h-3.8V27.8H36.2z"/>
		<path class="st6" d="M67.3,51.7h-3.9v-4.4c0-5.7-4.6-10.3-10.3-10.3c-5.7,0-10.3,4.6-10.3,10.3v4.4h-3.9v-4.4
			c0-5.2,2.9-9.8,7.1-12.3c-3.9-2.3-6.7-6.4-7.1-11.1h3.9C43.4,29,47.8,33,53.1,33c5.4,0,9.7-4.1,10.3-9.2h3.8
			c-0.4,4.7-3.1,8.8-7,11.1c4.3,2.5,7,7.1,7.1,12.3L67.3,51.7z"/>
		<path class="st6" d="M98.4,51.7h-3.9v-4.4c0-5.7-4.6-10.3-10.3-10.3c-5.7,0-10.3,4.6-10.3,10.3v4.4H70v-4.4
			c0-5.2,2.9-9.8,7.1-12.3c-3.9-2.3-6.7-6.4-7.1-11.1h3.9C74.5,29,78.8,33,84.1,33c5.4,0,9.7-4.1,10.3-9.2h3.8
			c-0.4,4.7-3.1,8.8-7,11.1c4.3,2.5,7,7.1,7.1,12.3L98.4,51.7z"/>
	</g>
</g>
</svg>
